#!OML:ASF H:\Punching\Project 1\Capture day 1\Session 1\female.ASF
:FULLY-SPECIFIED
:DEGREES
1670
root -1.10978 14.484 6.01359 11.7881 -31.8456 -0.229173
lowerback -3.35119 -4.91467 -1.16418
upperback -5.13286 -6.57404 1.21312
thorax -3.14714 -3.24982 1.84593
lowerneck 3.17426 13.9748 22.6347
upperneck 34.6459 22.4295 -13.2461
head 16.3256 11.3641 -6.05851
rclavicle 1.57269e-014 -4.02539e-015
rhumerus 13.0463 39.6049 -80.6012
rradius 130.103
rwrist -41.13
rhand -17.293 -9.15321
rfingers 7.12502
rthumb 8.95259 -38.9433
lclavicle 1.57269e-014 -4.02539e-015
lhumerus 29.0091 -3.74908 63.5798
lradius 69.1801
lwrist 15.981
lhand -15.5905 35.0459
lfingers 7.12502
lthumb 10.5952 64.7588
rfemur -54.2424 18.4396 10.9094
rtibia 50.3351
rfoot -13.2379 14.2418
rtoes -1.75967
lfemur 28.8494 10.2067 -14.1586
ltibia -2.22639e-014
lfoot -7.70867 2.49418
ltoes -33.1938
1671
root -1.12115 14.4975 6.02074 11.6102 -31.2466 0.0931553
lowerback -3.48242 -4.70917 -1.08774
upperback -5.07464 -6.29992 1.07254
thorax -3.04691 -3.11841 1.64918
lowerneck 2.82459 13.7423 22.3624
upperneck 34.711 21.9629 -12.9936
head 16.2144 11.1427 -5.98937
rclavicle 8.3533e-014 -1.68967e-014
rhumerus 12.7215 39.3476 -80.9302
rradius 130.26
rwrist -41.3408
rhand -17.4766 -9.19745
rfingers 7.12502
rthumb 8.77542 -38.995
lclavicle 8.3533e-014 -1.68967e-014
lhumerus 27.1457 -4.5287 63.546
lradius 75.6739
lwrist 19.1032
lhand -15.5137 35.9458
lfingers 7.12502
lthumb 10.6692 65.655
rfemur -54.0541 18.1248 10.6226
rtibia 50.4553
rfoot -13.5316 13.9512
rtoes -1.93789
lfemur 28.6877 9.65096 -14.2561
ltibia -7.31528e-014
lfoot -7.24491 2.14274
ltoes -33.4453
1672
root -1.13447 14.5136 6.02493 11.3588 -30.4475 0.497176
lowerback -3.51808 -4.53222 -1.12855
upperback -5.02029 -6.06324 0.933785
thorax -2.98901 -3.00095 1.52729
lowerneck 2.45941 13.481 22.0596
upperneck 34.7619 21.4498 -12.7284
head 16.0838 10.8995 -5.91768
rclavicle -1.26476e-014 3.3048e-015
rhumerus 12.3938 39.1137 -81.27
rradius 130.357
rwrist -41.6231
rhand -17.7319 -9.1872
rfingers 7.12502
rthumb 8.52905 -38.9949
lclavicle -1.26476e-014 3.3048e-015
lhumerus 25.2394 -5.21431 63.6156
lradius 82.04
lwrist 21.8001
lhand -15.1883 36.5922
lfingers 7.12502
lthumb 10.9831 66.2849
rfemur -53.7743 17.7216 10.2668
rtibia 50.5762
rfoot -13.8259 13.5511
rtoes -2.08972
lfemur 28.4981 8.89561 -14.4111
ltibia 1.27222e-014
lfoot -6.75183 1.87261
ltoes -33.6268
1673
root -1.14966 14.5324 6.02605 11.0816 -29.4633 0.936798
lowerback -3.46057 -4.36337 -1.2462
upperback -4.98516 -5.83734 0.806116
thorax -2.99343 -2.88526 1.46792
lowerneck 2.06639 13.1824 21.7256
upperneck 34.8196 20.8777 -12.4464
head 15.9452 10.6288 -5.84383
rclavicle 6.81348e-015 1.39833e-014
rhumerus 12.0521 38.873 -81.5904
rradius 130.419
rwrist -41.9681
rhand -18.0141 -9.15751
rfingers 7.12502
rthumb 8.25668 -38.9762
lclavicle 6.81348e-015 1.39833e-014
lhumerus 23.2972 -5.86175 63.8086
lradius 88.2241
lwrist 24.133
lhand -14.6715 36.9667
lfingers 7.12502
lthumb 11.4816 66.6323
rfemur -53.4249 17.2509 9.87175
rtibia 50.6793
rfoot -14.0863 13.0544
rtoes -2.16656
lfemur 28.2629 7.96401 -14.5919
ltibia 9.54166e-015
lfoot -6.22817 1.70851
ltoes -33.7319
1674
root -1.16684 14.5535 6.02418 10.8158 -28.3099 1.37831
lowerback -3.33557 -4.20129 -1.41166
upperback -4.97245 -5.62099 0.698415
thorax -3.05215 -2.77168 1.46149
lowerneck 1.65666 12.8465 21.3414
upperneck 34.878 20.2478 -12.1422
head 15.791 10.3296 -5.76238
rclavicle -6.51017e-015 1.24986e-014
rhumerus 11.7111 38.6311 -81.8769
rradius 130.477
rwrist -42.3573
rhand -18.2598 -9.18959
rfingers 7.12502
rthumb 8.01957 -39.0174
lclavicle -6.51017e-015 1.24986e-014
lhumerus 21.3184 -6.47545 64.1015
lradius 94.1927
lwrist 26.1838
lhand -14.04 37.0978
lfingers 7.12502
lthumb 12.0905 66.7285
rfemur -53.0183 16.73 9.46044
rtibia 50.7459
rfoot -14.3062 12.4562
rtoes -2.19075
lfemur 27.9707 6.87649 -14.7726
ltibia 2.54444e-014
lfoot -5.67664 1.65694
ltoes -33.7664
1675
root -1.18604 14.5771 6.02024 10.5946 -27.0114 1.76482
lowerback -3.15186 -4.02585 -1.5705
upperback -4.98597 -5.38824 0.618921
thorax -3.17001 -2.64866 1.48572
lowerneck 1.21566 12.4695 20.9108
upperneck 34.9618 19.5499 -11.8006
head 15.6352 9.99895 -5.6682
rclavicle -3.29868e-015 -1.25731e-014
rhumerus 11.3668 38.3672 -82.1064
rradius 130.537
rwrist -42.7792
rhand -18.465 -9.15525
rfingers 7.12502
rthumb 7.82153 -38.9906
lclavicle -3.29868e-015 -1.25731e-014
lhumerus 19.3209 -7.10017 64.5173
lradius 99.9005
lwrist 27.9837
lhand -13.3584 37.0143
lfingers 7.12502
lthumb 12.7477 66.6052
rfemur -52.5512 16.1894 9.08488
rtibia 50.7511
rfoot -14.4759 11.7575
rtoes -2.20484
lfemur 27.6272 5.66293 -14.9031
ltibia -9.54166e-015
lfoot -5.10793 1.7308
ltoes -33.719
1676
root -1.20735 14.6028 6.01458 10.4422 -25.5848 2.04908
lowerback -2.94799 -3.84059 -1.67663
upperback -5.00059 -5.14305 0.568657
thorax -3.30338 -2.52026 1.51128
lowerneck 0.732815 12.0618 20.4589
upperneck 35.0481 18.7964 -11.4301
head 15.4789 9.64364 -5.56378
rclavicle -4.19141e-014 -1.19271e-014
rhumerus 11.0652 38.0857 -82.2702
rradius 130.633
rwrist -43.1876
rhand -18.5814 -9.18039
rfingers 7.12502
rthumb 7.70915 -39.0199
lclavicle -4.19141e-014 -1.19271e-014
lhumerus 17.355 -7.72071 65.0039
lradius 105.309
lwrist 29.5584
lhand -12.657 36.7556
lfingers 7.12502
lthumb 13.4239 66.3031
rfemur -52.0227 15.6529 8.7918
rtibia 50.6812
rfoot -14.5979 10.9496
rtoes -2.23309
lfemur 27.2363 4.34336 -14.9333
ltibia -6.36111e-015
lfoot -4.52938 1.91734
ltoes -33.629
1677
root -1.23067 14.6305 6.00819 10.3583 -24.0431 2.20138
lowerback -2.71395 -3.63442 -1.69524
upperback -5.01971 -4.87031 0.557517
thorax -3.46367 -2.37983 1.52962
lowerneck 0.19706 11.6183 19.9604
upperneck 35.1576 17.9796 -11.0196
head 15.3305 9.25812 -5.4418
rclavicle 1.38625e-015 2.38542e-015
rhumerus 10.794 37.7709 -82.3434
rradius 130.77
rwrist -43.564
rhand -18.6197 -9.19517
rfingers 7.12502
rthumb 7.67224 -39.036
lclavicle 1.38625e-015 2.38542e-015
lhumerus 15.4532 -8.38099 65.5569
lradius 110.397
lwrist 30.9233
lhand -11.9824 36.3517
lfingers 7.12502
lthumb 14.0739 65.8551
rfemur -51.4207 15.1336 8.62034
rtibia 50.5316
rfoot -14.6784 10.0341
rtoes -2.30643
lfemur 26.815 2.93321 -14.8316
ltibia -4.77083e-014
lfoot -3.96082 2.22967
ltoes -33.4723
